<svg id="Layer_1" data-name="Layer 1" xmlns="http://www.w3.org/2000/svg" viewBox="0 0 245.31 300"><defs><style>.cls-1,.cls-2{fill-rule:evenodd;}.cls-2{fill:gray;}</style></defs><title>IRCTC</title><g id="Group_21648" data-name="Group 21648"><path id="Path_26795" data-name="Path 26795" class="cls-1" d="M76.64,230c-55.51-14.7-63.91-48.2-32.65-83.64L26.43,120c-53.1,54.7-21,107.79,50,110Zm155-102.79c15,55.45-10,79.44-56.11,70l-14,28.36c73.66,18.65,103.67-35.55,70-98.39ZM64.69,44.5C105.19,3.8,138.45,13.3,153.51,58l31.7-2C164.36-17.3,102.3-16,64.84,44.5Z"/><path id="Path_26796" data-name="Path 26796" d="M76.64,230c-55.51-14.7-63.91-48.2-32.65-83.64L26.43,120c-53.1,54.7-21,107.79,50,110Zm155-102.79c15,55.45-10,79.44-56.11,70l-14,28.36c73.66,18.65,103.67-35.55,70-98.39ZM64.69,44.5C105.19,3.8,138.45,13.3,153.51,58l31.7-2C164.36-17.3,102.3-16,64.84,44.5Z"/><path id="Path_26797" data-name="Path 26797" class="cls-2" d="M144.66,249.08h0l-4.1-2.7a334.5,334.5,0,0,1-71.92-63.1A311.83,311.83,0,0,1,15.19,95.64l-.6-1.44h0l2.7-1.35A335.81,335.81,0,0,1,106.9,61.76a312.43,312.43,0,0,1,106.87-2.7h0l-.3,5a335.55,335.55,0,0,1-17.9,91.59,312.11,312.11,0,0,1-51,93.53Zm16.6-23.49h0l-3.9-1.55A283.62,283.62,0,0,1,86.7,184.49a265.1,265.1,0,0,1-59.57-63.3l-.74-1.08h0l2-1.61A283.93,283.93,0,0,1,97.2,77a264,264,0,0,1,88-20.9h0c.25,1.4.46,2.75.66,4.15a285.1,285.1,0,0,1,1.24,78.93,265.29,265.29,0,0,1-25.85,86.39Z"/><path id="Path_26798" data-name="Path 26798" class="cls-1" d="M90.2,92.39h31.5a22.33,22.33,0,0,1,16.16,11.9,18.1,18.1,0,0,1,1.34,8.9,20.52,20.52,0,0,1-3.14,8.85,23.89,23.89,0,0,1-20,10.45c-5.55-1-8.35,5-3.65,9.45L144,171.23H90.2a2.94,2.94,0,0,1-3-2.89v-73A3,3,0,0,1,90.2,92.39Zm52.8,0h21.94a3,3,0,0,1,2.95,2.89v73.06a3,3,0,0,1-2.95,2.89h-5l-32.15-30A33.07,33.07,0,0,0,145.19,128a31.38,31.38,0,0,0,5-13.7A28.47,28.47,0,0,0,148,99.93a29.08,29.08,0,0,0-5-7.55Z"/><path id="Path_26799" data-name="Path 26799" d="M90.2,92.39h31.5a22.33,22.33,0,0,1,16.16,11.9,18.1,18.1,0,0,1,1.34,8.9,20.52,20.52,0,0,1-3.14,8.85,23.89,23.89,0,0,1-20,10.45c-5.55-1-8.35,5-3.65,9.45L144,171.23H90.2a2.94,2.94,0,0,1-3-2.89v-73A3,3,0,0,1,90.2,92.39Zm52.8,0h21.94a3,3,0,0,1,2.95,2.89v73.06a3,3,0,0,1-2.95,2.89h-5l-32.15-30A33.07,33.07,0,0,0,145.19,128a31.38,31.38,0,0,0,5-13.7A28.47,28.47,0,0,0,148,99.93a29.08,29.08,0,0,0-5-7.55Z"/><path id="Path_26800" data-name="Path 26800" class="cls-1" d="M24.93,298.78V254.83H39.34v43.95Z"/><path id="Path_26801" data-name="Path 26801" class="cls-1" d="M61.86,273.68h6.45a8.62,8.62,0,0,0,4.65-.9,3.63,3.63,0,0,0,1.25-3.15A3.77,3.77,0,0,0,73,266.38a9.48,9.48,0,0,0-5-.9h-6.1Zm-13.92,25V255h21a25,25,0,0,1,14.1,3,10.88,10.88,0,0,1,4.25,9.7,11.9,11.9,0,0,1-1.75,6.65,11.21,11.21,0,0,1-5.35,4.2,8.47,8.47,0,0,1,5.35,3.1,11.5,11.5,0,0,1,1.81,6.65v6.14h0c0,1.75.5,2.65,1.25,2.76v1.64H74.4a13.44,13.44,0,0,0-.6-2.8,9.12,9.12,0,0,1,0-1.81V290a6.88,6.88,0,0,0-1.35-5,6.41,6.41,0,0,0-4.65-1.4h-6v15Z"/><path id="Path_26802" data-name="Path 26802" class="cls-1" d="M123.05,281.72h13.4A18.64,18.64,0,0,1,130.2,295a21.87,21.87,0,0,1-15,5,22.25,22.25,0,0,1-16.66-6.2,23.08,23.08,0,0,1-6.05-16.95A23.45,23.45,0,0,1,98.69,260a21.68,21.68,0,0,1,16.51-6.3,22.67,22.67,0,0,1,15,4.6,18.36,18.36,0,0,1,6.1,13.15H122.8a6.8,6.8,0,0,0-6.76-6.84,5.91,5.91,0,0,0-.84,0,7,7,0,0,0-6.25,3.05,16.16,16.16,0,0,0-2,9.15,15,15,0,0,0,2.2,9,7.42,7.42,0,0,0,6.45,3.1,7.09,7.09,0,0,0,5-1.9,8.11,8.11,0,0,0,2.24-5.35Z"/><path id="Path_26803" data-name="Path 26803" class="cls-1" d="M151.6,298.78v-32.4H139V254.81h39.21v11.57h-12.4v32.4Z"/><path id="Path_26804" data-name="Path 26804" class="cls-1" d="M211.47,281.73h13.35a18.44,18.44,0,0,1-6.1,13.24,25.52,25.52,0,0,1-31.56-1.39,26.86,26.86,0,0,1,0-33.9,21.71,21.71,0,0,1,16.36-6.2,22.43,22.43,0,0,1,15,4.6,18.22,18.22,0,0,1,6.15,13.15H211.12a7.4,7.4,0,0,0-2.16-5,7.5,7.5,0,0,0-5.3-1.75,7,7,0,0,0-6.2,3,16.16,16.16,0,0,0-2.1,9.15,15.66,15.66,0,0,0,2.2,9,7.58,7.58,0,0,0,6.51,3.1,7.22,7.22,0,0,0,5-1.9,8.17,8.17,0,0,0,2.25-5.35Z"/></g></svg>